<svg width="96" height="96" viewBox="0 0 96 96" fill="none" xmlns="http://www.w3.org/2000/svg">
<path d="M4.75 38C4.75 35.1005 7.10051 32.75 10 32.75H86C88.8995 32.75 91.25 35.1005 91.25 38V95.25H4.75V38Z" fill="white" stroke="#080908" stroke-width="1.5"/>
<rect y="92" width="96" height="4" rx="2" fill="black"/>
<path d="M16.75 54C16.75 51.1005 19.1005 48.75 22 48.75H74C76.8995 48.75 79.25 51.1005 79.25 54V95.25H16.75V54Z" fill="white" stroke="#080908" stroke-width="1.5"/>
<path d="M16.75 54C16.75 51.1005 19.1005 48.75 22 48.75H56.75V79.25H16.75V54Z" fill="white" stroke="#080908" stroke-width="1.5"/>
<path d="M56.75 48.75H74C76.8995 48.75 79.25 51.1005 79.25 54V95.25H56.75V48.75Z" fill="white" stroke="#080908" stroke-width="1.5"/>
<rect x="60" y="74" width="1.5" height="4" rx="0.75" fill="#080908"/>
<rect x="60" y="70" width="1.5" height="2" rx="0.75" fill="#080908"/>
<path d="M8.93698 0.904247C8.9757 0.810871 9.06684 0.75 9.16792 0.75H87.801C87.906 0.75 87.9997 0.815546 88.0358 0.914095L94.7549 19.2797C94.8385 19.5081 94.6694 19.75 94.4263 19.75H1.6469C1.39741 19.75 1.22804 19.4964 1.3236 19.2659L8.93698 0.904247Z" fill="white" stroke="#080908" stroke-width="1.5"/>
<path d="M2.25 20.25H13.75V33.5C13.75 36.3995 11.3995 38.75 8.5 38.75H7.5C4.6005 38.75 2.25 36.3995 2.25 33.5V20.25Z" fill="white" stroke="#080908" stroke-width="1.5"/>
<path d="M13.75 20.25H25.25V33.5C25.25 36.3995 22.8995 38.75 20 38.75H19C16.1005 38.75 13.75 36.3995 13.75 33.5V20.25Z" fill="white" stroke="#080908" stroke-width="1.5"/>
<path d="M25.25 20.25H36.75V33.5C36.75 36.3995 34.3995 38.75 31.5 38.75H30.5C27.6005 38.75 25.25 36.3995 25.25 33.5V20.25Z" fill="white" stroke="#080908" stroke-width="1.5"/>
<path d="M36.75 20.25H48.25V33.5C48.25 36.3995 45.8995 38.75 43 38.75H42C39.1005 38.75 36.75 36.3995 36.75 33.5V20.25Z" fill="white" stroke="#080908" stroke-width="1.5"/>
<path d="M48.25 20.25H59.75V33.5C59.75 36.3995 57.3995 38.75 54.5 38.75H53.5C50.6005 38.75 48.25 36.3995 48.25 33.5V20.25Z" fill="white" stroke="#080908" stroke-width="1.5"/>
<path d="M59.75 20.25H71.25V33.5C71.25 36.3995 68.8995 38.75 66 38.75H65C62.1005 38.75 59.75 36.3995 59.75 33.5V20.25Z" fill="white" stroke="#080908" stroke-width="1.5"/>
<path d="M71.25 20.25H82.75V33.5C82.75 36.3995 80.3995 38.75 77.5 38.75H76.5C73.6005 38.75 71.25 36.3995 71.25 33.5V20.25Z" fill="white" stroke="#080908" stroke-width="1.5"/>
<path d="M82.75 20.25H94.25V33.5C94.25 36.3995 91.8995 38.75 89 38.75H88C85.1005 38.75 82.75 36.3995 82.75 33.5V20.25Z" fill="white" stroke="#080908" stroke-width="1.5"/>
<path d="M28.7813 79.25C29.162 74.7133 32.9649 71.15 37.6 71.15C42.2351 71.15 46.038 74.7133 46.4187 79.25H28.7813Z" fill="#97D4B7" stroke="#080908" stroke-width="1.5"/>
<circle cx="37.5992" cy="62.1714" r="5.42143" fill="#97D4B7" stroke="#080908" stroke-width="1.5"/>
<rect x="36.75" y="71" width="1.5" height="6" fill="#080908"/>
</svg>
