<svg width="26" height="24" viewBox="0 0 26 24" fill="none" xmlns="http://www.w3.org/2000/svg">
<path opacity="0.2" fill-rule="evenodd" clip-rule="evenodd" d="M17.9421 2.00008C17.374 2.45614 16.8898 3.0487 16.5196 3.74082C16.1495 4.43294 15.9012 5.20979 15.7905 6.02293C15.6797 6.83606 15.7087 7.66806 15.8758 8.46704C16.0428 9.26602 16.3443 10.0149 16.7613 10.6669C17.1784 11.3189 17.7022 11.8601 18.3 12.2567C18.8978 12.6534 19.5568 12.897 20.236 12.9723C20.9151 13.0477 21.5999 12.9532 22.2474 12.6947C22.895 12.4362 23.4916 12.0193 24 11.47V18.6199C23.9978 18.9351 23.9443 19.2467 23.8425 19.5369C23.7407 19.827 23.5925 20.0901 23.4066 20.3111C23.2206 20.5321 23.0004 20.7067 22.7586 20.8249C22.5168 20.9431 22.2581 21.0026 21.9972 20.9999H2.00276C1.74192 21.0026 1.48321 20.9431 1.2414 20.8249C0.999586 20.7067 0.779405 20.5321 0.59343 20.3111C0.407455 20.0901 0.259328 19.827 0.157507 19.5369C0.0556855 19.2467 0.00216457 18.9351 0 18.6199L0 4.38006C0.00216457 4.06489 0.0556855 3.75332 0.157507 3.46314C0.259328 3.17296 0.407455 2.90986 0.59343 2.68885C0.779405 2.46785 0.999586 2.29328 1.2414 2.1751C1.48321 2.05692 1.74192 1.99745 2.00276 2.00008H17.9421ZM8.27586 7.83003C8.27586 7.37004 7.98621 7.00004 7.63035 7.00004H3.12828C2.77241 7.00004 2.48276 7.37004 2.48276 7.83003V11.17C2.48276 11.63 2.77241 12 3.12828 12H7.63035C7.98621 12 8.27586 11.63 8.27586 11.17V7.83003Z" fill="#FFA39E"/>
<path opacity="0.3" fill-rule="evenodd" clip-rule="evenodd" d="M18.3043 17H16.2174C15.7652 17 15.5217 16.7 15.5217 16C15.5217 15.3 15.7652 15 16.2174 15H18.3043C18.7565 15 19 15.3 19 16C19 16.7 18.7565 17 18.3043 17ZM14.1304 17H12.0435C11.5913 17 11.3478 16.7 11.3478 16C11.3478 15.3 11.5913 15 12.0435 15H14.1304C14.5826 15 14.8261 15.3 14.8261 16C14.8261 16.7 14.5826 17 14.1304 17ZM9.95652 17H7.86957C7.41739 17 7.17391 16.7 7.17391 16C7.17391 15.3 7.41739 15 7.86957 15H9.95652C10.4087 15 10.6522 15.3 10.6522 16C10.6522 16.7 10.4087 17 9.95652 17ZM5.78261 17H3.69565C3.24348 17 3 16.7 3 16C3 15.3 3.24348 15 3.69565 15H5.78261C6.23478 15 6.47826 15.3 6.47826 16C6.47826 16.7 6.23478 17 5.78261 17Z" fill="#FFA39E"/>
<path fill-rule="evenodd" clip-rule="evenodd" d="M19 14C17.1435 14 15.363 13.2625 14.0503 11.9497C12.7375 10.637 12 8.85652 12 7C12 5.14348 12.7375 3.36301 14.0503 2.05025C15.363 0.737498 17.1435 0 19 0C20.8565 0 22.637 0.737498 23.9497 2.05025C25.2625 3.36301 26 5.14348 26 7C26 8.85652 25.2625 10.637 23.9497 11.9497C22.637 13.2625 20.8565 14 19 14ZM18 3V7C18 7.26522 18.1054 7.51957 18.2929 7.70711C18.4804 7.89464 18.7348 8 19 8C19.2652 8 19.5196 7.89464 19.7071 7.70711C19.8946 7.51957 20 7.26522 20 7V3C20 2.73478 19.8946 2.48043 19.7071 2.29289C19.5196 2.10536 19.2652 2 19 2C18.7348 2 18.4804 2.10536 18.2929 2.29289C18.1054 2.48043 18 2.73478 18 3ZM19 11.75C19.3315 11.75 19.6495 11.6183 19.8839 11.3839C20.1183 11.1495 20.25 10.8315 20.25 10.5C20.25 10.1685 20.1183 9.85054 19.8839 9.61612C19.6495 9.3817 19.3315 9.25 19 9.25C18.6685 9.25 18.3505 9.3817 18.1161 9.61612C17.8817 9.85054 17.75 10.1685 17.75 10.5C17.75 10.8315 17.8817 11.1495 18.1161 11.3839C18.3505 11.6183 18.6685 11.75 19 11.75Z" fill="#FF4D4F"/>
</svg>
