<svg width="24" height="24" viewBox="0 0 24 24" fill="none" xmlns="http://www.w3.org/2000/svg">
<path opacity="0.2" fill-rule="evenodd" clip-rule="evenodd" d="M21.9972 21.9999H2.00276C1.74192 22.0026 1.48321 21.9431 1.2414 21.8249C0.999586 21.7067 0.779405 21.5321 0.59343 21.3111C0.407455 21.0901 0.259328 20.827 0.157507 20.5369C0.0556855 20.2467 0.00216457 19.9351 0 19.6199L0 5.38006C0.00216457 5.06489 0.0556855 4.75332 0.157507 4.46314C0.259328 4.17296 0.407455 3.90986 0.59343 3.68885C0.779405 3.46785 0.999586 3.29328 1.2414 3.1751C1.48321 3.05692 1.74192 2.99745 2.00276 3.00008H21.9972C22.2581 2.99745 22.5168 3.05692 22.7586 3.1751C23.0004 3.29328 23.2206 3.46785 23.4066 3.68885C23.5925 3.90986 23.7407 4.17296 23.8425 4.46314C23.9443 4.75332 23.9978 5.06489 24 5.38006V19.6299C23.9935 20.2647 23.779 20.8705 23.4037 21.3147C23.0283 21.7589 22.5226 22.0053 21.9972 21.9999ZM8.27586 8.83003C8.27586 8.37004 7.98621 8.00004 7.63035 8.00004H3.12828C2.77241 8.00004 2.48276 8.37004 2.48276 8.83003V12.17C2.48276 12.63 2.77241 13 3.12828 13H7.63035C7.98621 13 8.27586 12.63 8.27586 12.17V8.83003Z" fill="#080908" fill-opacity="0.45"/>
<path opacity="0.3" fill-rule="evenodd" clip-rule="evenodd" d="M18.3043 18H16.2174C15.7652 18 15.5217 17.7 15.5217 17C15.5217 16.3 15.7652 16 16.2174 16H18.3043C18.7565 16 19 16.3 19 17C19 17.7 18.7565 18 18.3043 18ZM14.1304 18H12.0435C11.5913 18 11.3478 17.7 11.3478 17C11.3478 16.3 11.5913 16 12.0435 16H14.1304C14.5826 16 14.8261 16.3 14.8261 17C14.8261 17.7 14.5826 18 14.1304 18ZM9.95652 18H7.86957C7.41739 18 7.17391 17.7 7.17391 17C7.17391 16.3 7.41739 16 7.86957 16H9.95652C10.4087 16 10.6522 16.3 10.6522 17C10.6522 17.7 10.4087 18 9.95652 18ZM5.78261 18H3.69565C3.24348 18 3 17.7 3 17C3 16.3 3.24348 16 3.69565 16H5.78261C6.23478 16 6.47826 16.3 6.47826 17C6.47826 17.7 6.23478 18 5.78261 18Z" fill="#080908" fill-opacity="0.25"/>
</svg>
