<svg width="24" height="24" viewBox="0 0 24 24" fill="none" xmlns="http://www.w3.org/2000/svg">
<path d="M22 4H2C0.89543 4 0 4.89543 0 6V18C0 19.1046 0.89543 20 2 20H22C23.1046 20 24 19.1046 24 18V6C24 4.89543 23.1046 4 22 4Z" fill="#252525"/>
<path d="M9 17C11.7614 17 14 14.7614 14 12C14 9.23858 11.7614 7 9 7C6.23858 7 4 9.23858 4 12C4 14.7614 6.23858 17 9 17Z" fill="#EB001B"/>
<path d="M15 17C17.7614 17 20 14.7614 20 12C20 9.23858 17.7614 7 15 7C12.2386 7 10 9.23858 10 12C10 14.7614 12.2386 17 15 17Z" fill="#F79E1B"/>
<path fill-rule="evenodd" clip-rule="evenodd" d="M12 7.99951C13.2144 8.91172 14 10.3641 14 11.9999C14 13.6357 13.2144 15.088 12 16.0002C10.7856 15.088 10 13.6357 10 11.9999C10 10.3641 10.7856 8.91172 12 7.99951Z" fill="#FF5F00"/>
</svg>
