<svg width="16" height="15" viewBox="0 0 16 15" fill="none" xmlns="http://www.w3.org/2000/svg">
<path d="M7.99929 0.332031L10.8166 4.45403L15.608 5.86003L12.558 9.81336L12.7013 14.804L7.99929 13.1254L3.29729 14.804L3.44062 9.81336L0.390625 5.86003L5.18196 4.45403L7.99929 0.332031ZM6.66596 7.9987H5.33262C5.33261 8.6944 5.60448 9.36256 6.09023 9.86062C6.57597 10.3587 7.23712 10.6472 7.9326 10.6646C8.62809 10.682 9.30284 10.4269 9.81287 9.95374C10.3229 9.4806 10.6279 8.82686 10.6626 8.13203L10.666 7.9987H9.33262C9.33417 8.34469 9.20117 8.67773 8.96171 8.92747C8.72224 9.1772 8.39508 9.32408 8.04933 9.33706C7.70358 9.35004 7.36633 9.22811 7.10881 8.99704C6.8513 8.76596 6.69369 8.44383 6.66929 8.0987L6.66596 7.9987Z" fill="#080908"/>
</svg>
