<svg width="24" height="24" viewBox="0 0 24 24" fill="none" xmlns="http://www.w3.org/2000/svg">
<path d="M19.8893 4.71281C19.8727 4.59281 19.7676 4.5264 19.6807 4.51909C19.594 4.51186 17.7589 4.37583 17.7589 4.37583C17.7589 4.37583 16.4843 3.11049 16.3444 2.97043C16.2044 2.83046 15.9311 2.87303 15.825 2.90427C15.8093 2.90887 15.5465 2.98999 15.1117 3.12454C14.6859 1.89939 13.9345 0.773526 12.6127 0.773526C12.5762 0.773526 12.5386 0.775006 12.501 0.777143C12.1251 0.279965 11.6594 0.0639648 11.2572 0.0639648C8.17784 0.0639648 6.70669 3.91342 6.24542 5.86958C5.04888 6.24035 4.19885 6.50394 4.09027 6.53805C3.42238 6.74755 3.40126 6.76859 3.31356 7.39794C3.24756 7.8744 1.5 21.3891 1.5 21.3891L15.1174 23.9405L22.4957 22.3443C22.4957 22.3443 19.9056 4.83281 19.8893 4.71281H19.8893ZM14.3591 3.35731L13.2068 3.71394C13.2072 3.63273 13.2076 3.55284 13.2076 3.46547C13.2076 2.70405 13.1019 2.09098 12.9324 1.60498C13.6135 1.69046 14.0671 2.46544 14.3591 3.35731ZM12.0875 1.75596C12.2768 2.23046 12.3999 2.91142 12.3999 3.83032C12.3999 3.87733 12.3995 3.92032 12.3991 3.9638C11.6498 4.19591 10.8355 4.44791 10.0194 4.70073C10.4776 2.93229 11.3365 2.07816 12.0875 1.75596ZM11.1726 0.88991C11.3055 0.88991 11.4394 0.935033 11.5675 1.02323C10.5806 1.48761 9.52282 2.6572 9.07611 4.99284L7.19507 5.57542C7.7183 3.79391 8.96071 0.88991 11.1725 0.88991H11.1726Z" fill="#95BF46"/>
<path d="M19.6804 4.51911C19.5937 4.51188 17.7585 4.37585 17.7585 4.37585C17.7585 4.37585 16.484 3.11051 16.3441 2.97046C16.2917 2.91835 16.2211 2.89163 16.1473 2.88013L15.1177 23.9404L22.4954 22.3444C22.4954 22.3444 19.9052 4.83284 19.8889 4.71284C19.8724 4.59284 19.7673 4.52643 19.6804 4.51911Z" fill="#5E8E3E"/>
<path d="M12.6124 8.59605L11.7026 11.3023C11.7026 11.3023 10.9055 10.8769 9.92838 10.8769C8.49594 10.8769 8.42386 11.7758 8.42386 12.0023C8.42386 13.2383 11.6458 13.7119 11.6458 16.607C11.6458 18.8848 10.2011 20.3515 8.25315 20.3515C5.91561 20.3515 4.72021 18.8967 4.72021 18.8967L5.34611 16.8288C5.34611 16.8288 6.57487 17.8837 7.61172 17.8837C8.28923 17.8837 8.56482 17.3503 8.56482 16.9605C8.56482 15.3483 5.92153 15.2764 5.92153 12.6271C5.92153 10.3973 7.52197 8.2395 10.7526 8.2395C11.9974 8.2395 12.6124 8.59605 12.6124 8.59605Z" fill="white"/>
</svg>
